<svg xmlns="http://www.w3.org/2000/svg" width="1200" height="630" viewBox="0 0 1200 630"><defs>
  <linearGradient id="bg" x1="0" y1="0" x2="0.4" y2="1">
    <stop offset="0" stop-color="#FBFCFD"/><stop offset="1" stop-color="#E9ECF2"/>
  </linearGradient>
  <radialGradient id="glow" cx="0.5" cy="0.5" r="0.5">
    <stop offset="0" stop-color="#2563EB" stop-opacity="0.10"/>
    <stop offset="1" stop-color="#2563EB" stop-opacity="0"/>
  </radialGradient>
  <linearGradient id="blueGrad" x1="0" y1="0" x2="0" y2="1">
    <stop offset="0" stop-color="#4B82F7"/><stop offset="1" stop-color="#2563EB"/>
  </linearGradient>
  <linearGradient id="glass" x1="0" y1="0" x2="0.3" y2="1">
    <stop offset="0" stop-color="#FFFFFF" stop-opacity="0.95"/>
    <stop offset="1" stop-color="#DDE3ED" stop-opacity="0.85"/>
  </linearGradient>
  <filter id="sh" x="-40%" y="-40%" width="180%" height="180%">
    <feDropShadow dx="0" dy="16" stdDeviation="20" flood-color="#141C2E" flood-opacity="0.11"/>
  </filter>
  <filter id="shs" x="-60%" y="-60%" width="220%" height="220%">
    <feDropShadow dx="0" dy="8" stdDeviation="10" flood-color="#141C2E" flood-opacity="0.10"/>
  </filter>
  <filter id="blur"><feGaussianBlur stdDeviation="18"/></filter>
</defs><rect width="1200" height="630" fill="url(#bg)"/><circle cx="600" cy="322" r="420" fill="url(#glow)"/><ellipse cx="600.0" cy="554.0" rx="170.0" ry="27.2" fill="#8A93A6" opacity="0.13" filter="url(#blur)"/><circle cx="300.0" cy="212.0" r="30.0" fill="#E6EEFE" /><path d="M 300 212 Q 450 278 490 322" stroke="#7BA0F2" stroke-width="3" fill="none" opacity="0.55"/><circle cx="350.0" cy="412.0" r="22.0" fill="#C9DAFB" /><path d="M 350 412 Q 475 358 490 322" stroke="#7BA0F2" stroke-width="3" fill="none" opacity="0.55"/><circle cx="900.0" cy="192.0" r="26.0" fill="#E6EEFE" /><path d="M 900 192 Q 750 270 710 322" stroke="#7BA0F2" stroke-width="3" fill="none" opacity="0.55"/><circle cx="870.0" cy="382.0" r="34.0" fill="#C9DAFB" /><path d="M 870 382 Q 735 346 710 322" stroke="#7BA0F2" stroke-width="3" fill="none" opacity="0.55"/><circle cx="270.0" cy="332.0" r="16.0" fill="#E6EEFE" /><path d="M 270 332 Q 435 326 490 322" stroke="#7BA0F2" stroke-width="3" fill="none" opacity="0.55"/><circle cx="930.0" cy="302.0" r="18.0" fill="#C9DAFB" /><path d="M 930 302 Q 765 314 710 322" stroke="#7BA0F2" stroke-width="3" fill="none" opacity="0.55"/><rect x="482.0" y="112.0" width="236.0" height="420.0" rx="34.0" fill="#2B303B" filter="url(#sh)"/><rect x="491.0" y="121.0" width="218.0" height="402.0" rx="27.0" fill="#FFFFFF" /><rect x="570.0" y="130.0" width="60.0" height="10.0" rx="5.0" fill="#2B303B" /><rect x="508.0" y="156.0" width="60.0" height="60.0" rx="30.0" fill="#C9DAFB" /><rect x="578.0" y="168.0" width="96.0" height="12.0" rx="6.0" fill="#CBD2DD" /><rect x="578.0" y="190.0" width="66.0" height="12.0" rx="6.0" fill="#E1E5EC" /><rect x="508.0" y="234.0" width="184.0" height="96.0" rx="16.0" fill="#EFF1F5" /><path d="M 582 267 l 26 15 l -26 15 z" fill="#2563EB"/><rect x="508.0" y="346.0" width="184.0" height="42.0" rx="14.0" fill="url(#blueGrad)" /><rect x="508.0" y="408.0" width="165.6" height="12.0" rx="6.0" fill="#E1E5EC" /><rect x="508.0" y="434.0" width="128.8" height="12.0" rx="6.0" fill="#E1E5EC" /><rect x="508.0" y="460.0" width="92.0" height="12.0" rx="6.0" fill="#E1E5EC" /></svg>